<?xml version="1.0" encoding="UTF-8" standalone="no"?>
<!-- Created with Inkscape (http://www.inkscape.org/) -->

<svg
   xmlns:dc="http://purl.org/dc/elements/1.1/"
   xmlns:cc="http://creativecommons.org/ns#"
   xmlns:rdf="http://www.w3.org/1999/02/22-rdf-syntax-ns#"
   xmlns:svg="http://www.w3.org/2000/svg"
   xmlns="http://www.w3.org/2000/svg"
   xmlns:xlink="http://www.w3.org/1999/xlink"
   xmlns:sodipodi="http://sodipodi.sourceforge.net/DTD/sodipodi-0.dtd"
   xmlns:inkscape="http://www.inkscape.org/namespaces/inkscape"
   width="32"
   height="32"
   viewBox="0 0 8.4666665 8.4666669"
   version="1.1"
   id="svg8"
   inkscape:version="0.92.2 (5c3e80d, 2017-08-06)"
   sodipodi:docname="grab.svg">
  <defs
     id="defs2">
    <linearGradient
       inkscape:collect="always"
       id="Inner">
      <stop
         style="stop-color:#bababa;stop-opacity:0.97222221"
         offset="0"
         id="stop899" />
      <stop
         style="stop-color:#a4a4a4;stop-opacity:1"
         offset="1"
         id="stop901" />
    </linearGradient>
    <linearGradient
       id="Outer"
       inkscape:collect="always">
      <stop
         id="stop869"
         offset="0"
         style="stop-color:#5b5b5b;stop-opacity:1" />
      <stop
         id="stop871"
         offset="1"
         style="stop-color:#918787;stop-opacity:0.97254902" />
    </linearGradient>
    <linearGradient
       inkscape:collect="always"
       xlink:href="#Inner"
       id="linearGradient885"
       gradientUnits="userSpaceOnUse"
       x1="4.9945993"
       y1="289.54987"
       x2="5.0113039"
       y2="296.41534" />
    <linearGradient
       inkscape:collect="always"
       xlink:href="#Outer"
       id="linearGradient897"
       gradientUnits="userSpaceOnUse"
       x1="4.3240647"
       y1="296.34424"
       x2="4.3070216"
       y2="289.62909" />
    <linearGradient
       inkscape:collect="always"
       xlink:href="#Inner"
       id="linearGradient856"
       gradientUnits="userSpaceOnUse"
       x1="3.7764895"
       y1="289.53357"
       x2="3.8097262"
       y2="296.59698"
       gradientTransform="matrix(0.94709848,0,0,0.89251737,0.24315451,31.744328)" />
    <linearGradient
       inkscape:collect="always"
       xlink:href="#Outer"
       id="linearGradient864"
       x1="4.6505594"
       y1="296.54974"
       x2="4.7941465"
       y2="288.68127"
       gradientUnits="userSpaceOnUse"
       gradientTransform="matrix(0.94709848,0,0,0.89251737,0.24315451,31.744328)" />
  </defs>
  <sodipodi:namedview
     id="base"
     pagecolor="#ffffff"
     bordercolor="#666666"
     borderopacity="1.0"
     inkscape:pageopacity="0.0"
     inkscape:pageshadow="2"
     inkscape:zoom="11.111611"
     inkscape:cx="6.5518246"
     inkscape:cy="17.658111"
     inkscape:document-units="px"
     inkscape:current-layer="layer1"
     showgrid="false"
     units="px"
     inkscape:window-width="1366"
     inkscape:window-height="706"
     inkscape:window-x="-8"
     inkscape:window-y="-8"
     inkscape:window-maximized="1" />
  <metadata
     id="metadata5">
    <rdf:RDF>
      <cc:Work
         rdf:about="">
        <dc:format>image/svg+xml</dc:format>
        <dc:type
           rdf:resource="http://purl.org/dc/dcmitype/StillImage" />
        <dc:title />
      </cc:Work>
    </rdf:RDF>
  </metadata>
  <g
     inkscape:label="Layer 1"
     inkscape:groupmode="layer"
     id="layer1"
     transform="translate(0,-288.53332)">
    <path
       style="fill:url(#linearGradient856);fill-opacity:1;stroke:url(#linearGradient864);stroke-width:0.2432587px;stroke-linecap:butt;stroke-linejoin:miter;stroke-opacity:1"
       d="m 5.0289043,289.60605 c 0.035435,-0.35435 0.8225671,-0.27676 0.7989436,0.0894 -0.047247,1.03943 -0.044098,1.72202 -0.1149688,2.48978 -0.047247,0.82682 -0.2489067,1.98289 -0.2489067,1.98289 0.1299293,0.14174 0.6170056,-0.31308 0.6170056,-0.31308 0.2834821,-0.34254 0.3379625,-0.69799 0.7277504,-1.02872 0.4606585,-0.29529 0.7564576,-0.38705 0.980881,-0.32799 0.1417411,0.0472 0.3005926,0.49199 0.3005926,0.49199 -1.0984933,0.86226 -1.4496325,2.3335 -1.8984792,2.81778 -0.3779762,0.34254 -1.2972942,0.98399 -1.2972942,0.98399 l -3.2115941,-0.0745 c -0.2071925,-0.99156 -0.5567868,-1.54383 -0.6011852,-2.65379 -0.0887968,-0.97676 0.079103,-2.90724 0.079103,-2.90724 0.088797,-0.47358 0.5914916,-0.41469 0.6802884,-0.0447 l 0.2149361,2.4886 0.3063507,-0.16504 c 0,0 -0.2501596,-3.42785 -0.1099499,-4.05298 0,-0.32559 0.7573494,-0.35539 0.7277505,-0.0298 0.013493,1.44877 0.2242036,3.7578 0.2242036,3.7578 l 0.2353906,-0.14472 c 0,0 0.068614,-2.69924 0.2166088,-3.898 0.029599,-0.39958 0.8976929,-0.39989 0.8384951,-0.0447 -0.1035963,1.28756 -0.082691,3.82576 -0.082691,3.82576 l 0.2163898,0.10812 c 0.1771763,-0.88588 0.4003794,-3.35085 0.4003795,-3.35085 z"
       id="path846"
       inkscape:connector-curvature="0"
       sodipodi:nodetypes="ccccccccccccccccccccccccc" />
  </g>
</svg>
